<svg width="14" height="10" viewBox="0 0 14 10" fill="none" xmlns="http://www.w3.org/2000/svg">
<path d="M5.39608 9.27958C5.26482 9.27984 5.13479 9.25419 5.01346 9.20408C4.89214 9.15397 4.7819 9.08039 4.68908 8.98758L0.447083 4.74458C0.35151 4.6524 0.275252 4.54211 0.222758 4.42014C0.170265 4.29817 0.142587 4.16697 0.14134 4.0342C0.140094 3.90142 0.165303 3.76972 0.215497 3.64679C0.265691 3.52386 0.339864 3.41216 0.43369 3.3182C0.527515 3.22424 0.639113 3.14991 0.761973 3.09954C0.884832 3.04918 1.01649 3.02378 1.14927 3.02484C1.28205 3.0259 1.41329 3.05339 1.53533 3.10571C1.65737 3.15803 1.76777 3.23413 1.86008 3.32958L5.39508 6.86458L11.7601 0.501577C11.9476 0.313936 12.202 0.208468 12.4672 0.208374C12.7325 0.20828 12.9869 0.313569 13.1746 0.501077C13.3622 0.688585 13.4677 0.942953 13.4678 1.20822C13.4679 1.47349 13.3626 1.72794 13.1751 1.91558L6.10308 8.98758C6.01026 9.08039 5.90003 9.15397 5.7787 9.20408C5.65738 9.25419 5.52735 9.27984 5.39608 9.27958Z" fill="#2FAB73"/>
</svg>
